<svg xmlns="http://www.w3.org/2000/svg" width="971" height="350" viewBox="0 0 971 350">
  <metadata><?xpacket begin="﻿" id="W5M0MpCehiHzreSzNTczkc9d"?>
<x:xmpmeta xmlns:x="adobe:ns:meta/" x:xmptk="Adobe XMP Core 5.6-c142 79.160924, 2017/07/13-01:06:39        ">
   <rdf:RDF xmlns:rdf="http://www.w3.org/1999/02/22-rdf-syntax-ns#">
      <rdf:Description rdf:about=""/>
   </rdf:RDF>
</x:xmpmeta>
                                                                                                    
                                                                                                    
                                                                                                    
                                                                                                    
                                                                                                    
                                                                                                    
                                                                                                    
                                                                                                    
                                                                                                    
                                                                                                    
                                                                                                    
                                                                                                    
                                                                                                    
                                                                                                    
                                                                                                    
                                                                                                    
                                                                                                    
                                                                                                    
                                                                                                    
                                                                                                    
                           
<?xpacket end="w"?></metadata>
<defs>
    <style>
      .cls-1 {
        fill: #e4e1f2;
        fill-rule: evenodd;
      }
    </style>
  </defs>
  <path id="_404" data-name="404" class="cls-1" d="M684.06,223a95,95,0,1,1-95.012,95,95.006,95.006,0,0,1,95.012-95m0-80A175,175,0,1,0,859.082,318,175.01,175.01,0,0,0,684.06,143h0Zm-279.4,11.981h-75.7v0.674L198,366.339l4.493,46.269H328.96v69.4h75.7v-69.4H437.91v-58.4H404.663V154.981Zm-80.42,106.241,4.717-7.637V354.21H270.109ZM1135.76,154.981h-75.71v0.674L929.09,366.339l4.493,46.269H1060.05v69.4h75.71v-69.4H1169v-58.4h-33.24V154.981h0Zm-80.42,106.241,4.71-7.637V354.21H1001.2Z" transform="translate(-198 -143)"/>
</svg>
