<?xml version="1.0" encoding="utf-8"?>
<!-- Generator: Adobe Illustrator 22.0.1, SVG Export Plug-In . SVG Version: 6.00 Build 0)  -->
<svg version="1.1" id="Слой_4" xmlns="http://www.w3.org/2000/svg" xmlns:xlink="http://www.w3.org/1999/xlink" x="0px" y="0px"
	 viewBox="0 0 164 112.1" style="enable-background:new 0 0 164 112.1;" xml:space="preserve">
<style type="text/css">
	.st0{fill:#FE0B37;}
	.st1{fill:#CE5959;}
	.st2{fill:#EA7878;}
	.st3{fill:#F48E8E;}
</style>
<g>
	<path class="st0" d="M164,48.2c0.2-12.4-7.8-24.8-24.2-34.3c-32.1-18.5-84-18.5-115.9,0C8,23.1,0.1,35.2,0.1,47.4c0,0,0-0.1,0-0.1
		L0,64.4c0,12.2,8,24.5,24.2,33.8c32.1,18.5,84,18.5,115.9,0c15.8-9.2,23.8-21.3,23.8-33.3l0.1-17.2C164,47.9,164,48,164,48.2z"/>
	<path class="st1" d="M164,47.7l-0.1,17.2c0,12.1-8,24.1-23.8,33.3c-31.9,18.5-83.8,18.5-115.9,0C8,88.9,0,76.7,0,64.4l0.1-17.2
		c0,12.2,8,24.5,24.2,33.8c32.1,18.5,84,18.5,115.9,0C156,71.8,163.9,59.8,164,47.7z"/>
</g>
<path class="st2" d="M139.8,13.9c32.1,18.5,32.3,48.6,0.4,67.1S56.4,99.6,24.3,81C-7.8,62.5-8,32.4,23.9,13.9S107.7-4.6,139.8,13.9z
	"/>
<g>
	<path class="st1" d="M61.4,26.6C66,31.9,63,42,63.7,48.2c1.7,15.9,24.6,26.4,11.1,34.4c-15,5.9-41.3-12.5-52.6-24.2
		c-11.3-11.7-4.9-25.5,6.8-31.9C44,20.6,50.1,15,61.4,26.6z"/>
	
		<ellipse transform="matrix(0.9998 -1.860681e-02 1.860681e-02 0.9998 -0.5494 0.7679)" class="st3" cx="41" cy="29.9" rx="4.9" ry="2.5"/>
	
		<ellipse transform="matrix(0.9998 -1.860681e-02 1.860681e-02 0.9998 -0.6687 0.6148)" class="st3" cx="32.7" cy="36.2" rx="4.9" ry="2.5"/>
	
		<ellipse transform="matrix(0.9998 -1.860681e-02 1.860681e-02 0.9998 -0.8409 0.5548)" class="st3" cx="29.4" cy="45.5" rx="4.9" ry="2.5"/>
	
		<ellipse transform="matrix(0.9998 -1.860681e-02 1.860681e-02 0.9998 -1.0257 0.6518)" class="st3" cx="34.5" cy="55.4" rx="4.9" ry="2.5"/>
	
		<ellipse transform="matrix(0.9998 -1.860681e-02 1.860681e-02 0.9998 -1.1728 0.8126)" class="st3" cx="43.1" cy="63.4" rx="4.9" ry="2.5"/>
	
		<ellipse transform="matrix(0.9998 -1.860681e-02 1.860681e-02 0.9998 -1.2997 0.9998)" class="st3" cx="53.1" cy="70.3" rx="4.9" ry="2.5"/>
	
		<ellipse transform="matrix(0.9998 -1.860681e-02 1.860681e-02 0.9998 -1.4076 1.2102)" class="st3" cx="64.3" cy="76.2" rx="4.9" ry="2.5"/>
</g>
<g>
	<path class="st1" d="M98.9,26.6c-4.8,6.5,1.1,14.6,1.2,20.8c0.2,16-21.3,29.1-7,35.5c15.6,4.1,39.5-17.3,49.4-30.2
		c9.9-12.9,1.8-25.9-10.5-30.9C116.3,17.7,108.7,13.7,98.9,26.6z"/>
	
		<ellipse transform="matrix(0.995 -9.956524e-02 9.956524e-02 0.995 -2.0525 12.119)" class="st3" cx="120.4" cy="26.6" rx="4.9" ry="2.5"/>
	
		<ellipse transform="matrix(0.995 -9.956524e-02 9.956524e-02 0.995 -2.5367 13.0387)" class="st3" cx="129.4" cy="31.9" rx="4.9" ry="2.5"/>
	
		<ellipse transform="matrix(0.995 -9.956524e-02 9.956524e-02 0.995 -3.3882 13.5185)" class="st3" cx="133.7" cy="40.7" rx="4.9" ry="2.5"/>
	
		<ellipse transform="matrix(0.995 -9.956524e-02 9.956524e-02 0.995 -4.4541 13.1817)" class="st3" cx="129.8" cy="51.2" rx="4.9" ry="2.5"/>
	
		<ellipse transform="matrix(0.995 -9.956524e-02 9.956524e-02 0.995 -5.3819 12.4728)" class="st3" cx="122.3" cy="60.2" rx="4.9" ry="2.5"/>
	
		<ellipse transform="matrix(0.995 -9.956524e-02 9.956524e-02 0.995 -6.2283 11.6056)" class="st3" cx="113.2" cy="68.2" rx="4.9" ry="2.5"/>
	
		<ellipse transform="matrix(0.995 -9.956524e-02 9.956524e-02 0.995 -6.9961 10.598)" class="st3" cx="102.7" cy="75.4" rx="4.9" ry="2.5"/>
</g>
</svg>
