<?xml version="1.0" encoding="utf-8"?>
<!-- Generator: Adobe Illustrator 22.0.1, SVG Export Plug-In . SVG Version: 6.00 Build 0)  -->
<svg version="1.1" id="Слой_4" xmlns="http://www.w3.org/2000/svg" xmlns:xlink="http://www.w3.org/1999/xlink" x="0px" y="0px"
	 viewBox="0 0 358.8 207.7" style="enable-background:new 0 0 358.8 207.7;" xml:space="preserve">
<style type="text/css">
	.st0{fill:#C8E281;}
	.st1{fill:#AACC75;}
</style>
<path class="st0" d="M336.1,52.6c-10.8-6.2-31.2-8.7-42.4-15.1c-11.2-6.5-15.5-18.3-26.3-24.5c-1.9-1.1-3.9-2-6.2-2.6
	c-16.2-4.8-39.3,2.4-56.9,0.8c-17.8-1.6-36-12.6-53.8-11c-17.6,1.6-28.9,15.2-45.1,20c-15.6,4.6-41.5,1.8-54.5,9.4
	c-13,7.6-8.2,22.5-16.1,31.6C26.5,70.6,3,77.3,0.3,87.5c-2.7,10.3,16.3,20.8,19.1,31.1c2.8,10.2-9.6,23.6-1.3,33
	c1.2,1.3,2.7,2.5,4.6,3.6c10.8,6.2,31.2,8.7,42.4,15.1c11.2,6.5,15.5,18.3,26.3,24.5c1.9,1.1,3.9,2,6.2,2.6
	c16.3,4.8,39.3-2.4,56.9-0.8c17.8,1.6,36,12.6,53.8,11c17.6-1.6,28.9-15.2,45.1-20c15.6-4.6,41.5-1.8,54.5-9.4
	c13.1-7.6,8.2-22.5,16.1-31.6c8.2-9.4,31.7-16,34.4-26.2c2.7-10.3-16.3-20.8-19.1-31.1c-2.8-10.2,9.6-23.6,1.3-33
	C339.5,54.9,337.9,53.7,336.1,52.6z"/>
<path class="st1" d="M120.1,116.6c3.3-19.1-96.4-36.2-99.1-26c-2.7,10.3,8.7,13.3,19.4,17c12.3,6.2-9.6,23.6-1.3,33
	c1.2,1.3,2.7,2.5,4.6,3.6c10.8,6.2,31.2,8.7,42.4,15.1c11.2,6.5,15.5,18.3,26.3,24.5c1.9,1.1,3.9,2,6.2,2.6
	c16.3,4.8,15.4-11.4,45.9-3.1C179.4,173,106.1,167.9,120.1,116.6z"/>
<path class="st1" d="M243.4,103.2c-0.8,15.7,82,11.5,83.2,3c1.2-8.6-8.3-9.8-17.3-11.8c-3.3-7.9,5.4-19.9-2.2-26.7
	c-1.1-1-2.4-1.8-4-2.4c-9.3-4-26-3.9-35.6-8.1c-9.7-4.1-14.3-13.2-23.5-17.2c-1.6-0.7-3.3-1.2-5.2-1.5c-13.5-2.3-11.3,10.7-36.7,6.9
	C187.5,45.9,249.7,60.5,243.4,103.2z"/>
<path class="st1" d="M147.7,67.6c21.5,13.5,39.1,0.2,32.2-17.8c-3.8-6.4-11.2-13.8-18.2-10.3c-6.5-3.5-7.1-16.3-15.9-16.7
	c-1.2-0.1-2.6,0.1-4,0.6c-11.1,2.7-15.4,18.1-24.1,20.5c-8.7,2.5-13.6-11-29.1-5.5c-1.4,0.4-2.9,1-4.3,1.8
	C74,46,66.9,57.2,72.7,64.7C96.9,84.2,113.1,43.9,147.7,67.6z"/>
<path class="st1" d="M283.3,131.8c3.6-10.9,23.8,6.4,22.9,22.8c0,29-55.4,13.3-64,12.5c-15.5,0.5-16,16.9-30,16.5
	c-1.3,0-24.9-5.2-17-24C207.4,131.1,255.5,175.1,283.3,131.8z"/>
</svg>
