<?xml version="1.0" encoding="utf-8"?>
<!-- Generator: Adobe Illustrator 22.0.1, SVG Export Plug-In . SVG Version: 6.00 Build 0)  -->
<svg version="1.1" id="Слой_4" xmlns="http://www.w3.org/2000/svg" xmlns:xlink="http://www.w3.org/1999/xlink" x="0px" y="0px"
	 viewBox="0 0 340 232.3" style="enable-background:new 0 0 340 232.3;" xml:space="preserve">
<style type="text/css">
	.st0{fill:#EFD2A3;}
	.st1{fill:#E0BD92;}
	.st2{fill:#FCF6ED;}
</style>
<path class="st0" d="M4.6,110.7c1.5-3.2,3.3-7.7,4.9-10.8c2.3-4.5,5.5-10.5,8.2-14.8c1.8-3,4.4-6.9,6.4-9.7
	c3.2-4.3,7.6-10.1,11.1-14.1c2.3-2.6,5.3-6,7.8-8.3c4.4-4.2,10.3-9.7,15-13.5c2.6-2.1,6-4.8,8.8-6.6c4.6-3.1,10.9-7,15.6-9.9l0,0
	c5.4-2.8,12.7-6.6,18.3-9c8.3-3.5,11.9-4.6,20.1-7.1c2.9-0.9,6.7-1.8,9.6-2.5c2.5-0.6,5.8-1.2,8.4-1.7c5-0.9,10.6-1.6,16.7-2.1
	c2.4-0.2,5.7-0.4,8.1-0.5c2.4,0,5.6-0.1,8-0.1c2.4,0,5.6,0.2,8,0.3c5.3,0.2,12.9,1.2,16.1,1.6c3.3,0.4,10.6,1.7,16.7,3.3
	c6.9,1.7,11.2,3.1,17.8,5.4c3.1,1.1,7.2,2.7,10.2,4c2.8,1.2,6.4,2.9,9.1,4.2c3.7,1.8,8.5,4.4,11.9,6.5c5.6,3.4,12.7,8.4,18,12.3
	c3.6,2.7,8.2,6.5,11.4,9.7c4.4,4.3,10.3,10,14.3,14.7c4.5,5.3,10,12.7,13.9,18.4c3.1,4.5,6.7,10.9,9.3,15.8
	c2.4,4.5,5.2,10.8,7.2,15.5c13.2,32.6-2.6,68.2-47,93.1c-67.3,37.8-175,36.7-240.4-2.4C6,177.1-8.4,142.3,4.6,110.7z"/>
<path class="st1" d="M335.6,111.6c-2-4.7-4.8-11-7.2-15.5c-2.5-4.9-6.1-11.3-9.3-15.8c-3.9-5.7-9.4-13.1-13.9-18.4
	c-4-4.7-9.8-10.4-14.3-14.7c-3.2-3.1-7.8-7-11.4-9.7c-5.2-3.9-12.4-8.9-18-12.3c-3.5-2.1-8.3-4.8-11.9-6.5c0,0-0.1,0-0.1,0
	c3.5,2.4,6.9,4.8,9.8,7c3.6,2.7,8.2,6.5,11.4,9.7c4.4,4.3,10.3,10,14.3,14.7c4.5,5.3,10,12.7,13.9,18.4c3.1,4.5,6.7,10.9,9.3,15.8
	c2.4,4.5,5.2,10.8,7.2,15.5c13.2,32.6-2.6,68.2-47,93.1c-63.5,35.7-163,36.7-229,3.8c2.8,1.9,5.7,3.8,8.7,5.7
	c65.4,39.1,173.1,40.2,240.4,2.4C332.9,179.8,348.7,144.2,335.6,111.6z"/>
<g>
	<ellipse class="st2" cx="180.6" cy="36.2" rx="3.2" ry="8.5"/>
	<ellipse transform="matrix(0.9419 -0.336 0.336 0.9419 4.8022 57.008)" class="st2" cx="167.1" cy="14.6" rx="8.5" ry="3.2"/>
	<ellipse transform="matrix(0.7838 -0.621 0.621 0.7838 26.3876 131.1866)" class="st2" cx="201.6" cy="27.7" rx="8.5" ry="3.2"/>
	<ellipse transform="matrix(0.3193 -0.9477 0.9477 0.3193 65.3897 212.4829)" class="st2" cx="180.6" cy="60.7" rx="3.2" ry="8.5"/>
	<ellipse transform="matrix(0.2058 -0.9786 0.9786 0.2058 30.0279 236.1779)" class="st2" cx="160.5" cy="99.6" rx="3.2" ry="8.5"/>
	<ellipse transform="matrix(0.8148 -0.5798 0.5798 0.8148 -4.3477 147.9861)" class="st2" cx="229.4" cy="80.8" rx="8.5" ry="3.2"/>
	<ellipse transform="matrix(0.7071 -0.7071 0.7071 0.7071 -6.7775 159.6465)" class="st2" cx="189.3" cy="88" rx="3.2" ry="8.5"/>
	<ellipse transform="matrix(0.7071 -0.7071 0.7071 0.7071 47.6095 170.3563)" class="st2" cx="229.4" cy="27.7" rx="3.2" ry="8.5"/>
	<ellipse transform="matrix(0.742 -0.6704 0.6704 0.742 -12.234 117.6852)" class="st2" cx="146.8" cy="74.7" rx="8.5" ry="3.2"/>
	<ellipse transform="matrix(0.7071 -0.7071 0.7071 0.7071 19.3788 162.3635)" class="st2" cx="205.7" cy="57.8" rx="3.2" ry="8.5"/>
	
		<ellipse transform="matrix(0.7071 -0.7071 0.7071 0.7071 -20.7925 103.5056)" class="st2" cx="114.5" cy="76.9" rx="3.2" ry="8.5"/>
	<ellipse transform="matrix(0.901 -0.4337 0.4337 0.901 2.2907 105.6864)" class="st2" cx="232.8" cy="47.8" rx="3.2" ry="8.5"/>
	<ellipse transform="matrix(0.5455 -0.8381 0.8381 0.5455 35.1422 149.1105)" class="st2" cx="155.1" cy="42.2" rx="8.5" ry="3.2"/>
	
		<ellipse transform="matrix(0.999 -4.450042e-02 4.450042e-02 0.999 -2.0001 5.7631)" class="st2" cx="128.4" cy="47.8" rx="8.5" ry="3.2"/>
	<ellipse transform="matrix(0.8376 -0.5463 0.5463 0.8376 5.0289 74.369)" class="st2" cx="127.6" cy="28.7" rx="8.5" ry="3.2"/>
</g>
</svg>
