<?xml version="1.0" encoding="utf-8"?>
<!-- Generator: Adobe Illustrator 22.0.1, SVG Export Plug-In . SVG Version: 6.00 Build 0)  -->
<svg version="1.1" id="Слой_4" xmlns="http://www.w3.org/2000/svg" xmlns:xlink="http://www.w3.org/1999/xlink" x="0px" y="0px"
	 viewBox="0 0 340 248.3" style="enable-background:new 0 0 340 248.3;" xml:space="preserve">
<style type="text/css">
	.st0{fill:#FFB657;}
	.st1{fill:#EFD2A3;}
	.st2{fill:#FEDAAA;}
	.st3{fill:#E0BD92;}
</style>
<g>
	<path class="st0" d="M340,99.9c0.5-25.7-16.2-51.5-50.1-71c-66.6-38.4-174.2-38.4-240.3,0C16.6,48,0.1,73.1,0.2,98.2
		c0-0.1,0-0.2,0-0.2L0,149.4c-0.1,25.4,16.7,50.7,50.2,70.1c66.6,38.4,174.2,38.4,240.3,0c32.9-19.1,49.3-44.1,49.4-69.1l0.1-51.4
		C340,99.2,340,99.6,340,99.9z"/>
	<path class="st1" d="M340,98.9l-0.1,51.4c-0.1,25-16.5,50-49.4,69.1c-66.2,38.4-173.8,38.4-240.3,0C16.7,200.1-0.1,174.7,0,149.4
		L0.1,98c-0.1,25.4,16.7,50.7,50.2,70.1c66.6,38.4,174.2,38.4,240.3,0C323.5,149,340,124,340,98.9z"/>
</g>
<path class="st2" d="M289.9,28.8c66.6,38.4,66.9,100.8,0.8,139.2s-173.8,38.4-240.3,0S-16.6,67.3,49.5,28.8S223.3-9.6,289.9,28.8z"
	/>
<path class="st3" d="M290.7,168c-15.7,9.1-33.7,16.1-52.9,20.8v51.4c19.2-4.8,37.1-11.7,52.8-20.8c32.9-19.1,49.3-44.1,49.4-69.1
	l0.1-51.4C340,124,323.5,149,290.7,168z"/>
</svg>
