<?xml version="1.0" encoding="utf-8"?>
<!-- Generator: Adobe Illustrator 22.0.1, SVG Export Plug-In . SVG Version: 6.00 Build 0)  -->
<svg version="1.1" id="Слой_1" xmlns="http://www.w3.org/2000/svg" xmlns:xlink="http://www.w3.org/1999/xlink" x="0px" y="0px"
	 viewBox="0 0 442 442" style="enable-background:new 0 0 442 442;" xml:space="preserve">
<style type="text/css">
	.st0{fill:#E2DCF3;}
</style>
<path id="circle" class="st0" d="M221,90c35,0,67.9,13.6,92.6,38.4C338.4,153.1,352,186,352,221s-13.6,67.9-38.4,92.6
	C288.9,338.4,256,352,221,352s-67.9-13.6-92.6-38.4C103.6,288.9,90,256,90,221s13.6-67.9,38.4-92.6C153.1,103.6,186,90,221,90
	 M221,0C98.9,0,0,98.9,0,221s98.9,221,221,221s221-98.9,221-221S343.1,0,221,0L221,0z"/>
</svg>
