<?xml version="1.0" encoding="utf-8"?>
<!-- Generator: Adobe Illustrator 22.0.1, SVG Export Plug-In . SVG Version: 6.00 Build 0)  -->
<svg version="1.1" id="Capa_1" xmlns="http://www.w3.org/2000/svg" xmlns:xlink="http://www.w3.org/1999/xlink" x="0px" y="0px"
	 viewBox="0 0 167.9 234.6" style="enable-background:new 0 0 167.9 234.6;" xml:space="preserve">
<style type="text/css">
	.st0{fill:#E6EBED;}
	.st1{fill:#CE5959;}
	.st2{fill:#EA7878;}
	.st3{fill:#717275;}
	.st4{fill:#A39282;}
	.st5{fill:#A5B4B4;}
	.st6{fill:#C1C6C6;}
</style>
<g transform="translate(0 -1)">
	<g>
		<polygon class="st0" points="138.2,196.3 148.3,213.8 148.3,213.8 117.8,231.4 110.5,235.6 98.3,214.7 98.5,214.6 		"/>
		<polygon class="st0" points="39.3,180.6 39.2,180.8 27.3,187.6 19.9,174.9 30.3,168.9 30.3,168.9 		"/>
	</g>
	<path class="st1" d="M163,151.9c0,18.8-6.2,32.3-16.3,39.5l-1,0.6c-1.1,0.8-2.2,1.4-3.4,2l-0.1,0.1l-4.1,2.3l-21.8,12.6l0,0
		L27.1,53.2l0.4-0.3h0l0.1-0.1L50,40.1l0,0c0.3-0.3,0.7-0.6,1.1-0.9h0c2.1-1.6,4.5-2.9,6.9-3.8h0c11.1-4.3,25.5-2.5,41.1,6.5
		c11.1,6.7,21,15.2,29.3,25.1l25.5,42.3C159.7,122.8,162.7,137.2,163,151.9z"/>
	<path class="st2" d="M132.5,169.5c0,18.8-6.2,32.3-16.2,39.4c-2.7,1.9-5.8,3.4-9,4.3c-2.9,0.9-5.8,1.3-8.8,1.4
		c-10.5-0.1-20.9-3.1-29.8-8.7c-11.2-6.7-21.1-15.2-29.4-25.2c-3.2-3.8-6.2-7.7-9-11.8C14.9,146.6,4.9,119.7,4.9,95.8
		c0-18.4,5.9-31.8,15.7-39c2.1-1.6,4.5-2.9,7-3.9c0.1,0,0.1,0,0.2-0.1c11.1-4.2,25.4-2.4,41,6.6c16.6,10.2,30.5,24.1,40.9,40.6h0
		c2.5,3.9,4.9,7.9,7,11.9C126.5,129.6,131.9,149.3,132.5,169.5z"/>
	<path class="st0" d="M118.1,161.2c0,0.6,0,1.2,0,1.7c0.1,7.5-1.9,14.9-5.7,21.4c-0.6,0.9-1.2,1.8-1.9,2.7c-3.8,4.8-9.4,8-15.5,8.8
		c-1.1,0.2-2.2,0.3-3.3,0.3c-7.6,0-15-2.1-21.5-5.9c-0.5-0.3-1-0.5-1.5-0.8c-0.5-0.3-1.1-0.6-1.6-1c-8.4-5.3-15.8-11.9-22.1-19.6
		c-0.7-0.8-1.4-1.7-2.1-2.6c-6.8-8.6-12.3-18.2-16.5-28.3c-0.4-1-0.8-2.1-1.2-3c-3.6-9.2-5.6-18.9-6-28.8c0-0.6,0-1.2,0-1.9
		c0-0.6,0-1.2,0-1.7c-0.1-7.5,1.9-14.9,5.6-21.4c0.6-0.9,1.2-1.8,1.9-2.7c3.8-4.8,9.4-8,15.5-8.8c1.1-0.2,2.2-0.3,3.3-0.3
		c7.6,0.1,15,2.1,21.5,5.9c0.5,0.3,1,0.5,1.5,0.8c0.5,0.3,1.1,0.6,1.6,1c8.4,5.3,15.8,11.9,22.1,19.6c0.7,0.9,1.4,1.7,2.1,2.6
		c6.7,8.7,12.3,18.2,16.5,28.3c0.4,1,0.8,2.1,1.2,3.1c3.6,9.2,5.6,18.9,6,28.8C118.1,159.9,118.1,160.5,118.1,161.2z"/>
	<g>
		<path class="st3" d="M93.2,148.4c-0.3,0-0.6-0.1-0.8-0.2l-17.9-10.4c-0.8-0.4-1-1.4-0.6-2.2c0.4-0.8,1.4-1,2.2-0.6L94,145.4
			c0.6,0.4,0.9,1.1,0.7,1.8C94.6,147.9,93.9,148.4,93.2,148.4z"/>
		<path class="st3" d="M68.7,126.5c-0.4,0-0.8-0.2-1.1-0.5s-0.5-0.7-0.5-1.1V96.6c0-0.9,0.7-1.6,1.6-1.6c0.9,0,1.6,0.7,1.6,1.6v28.3
			c0,0.4-0.2,0.8-0.5,1.1C69.6,126.4,69.1,126.5,68.7,126.5z"/>
		<path class="st4" d="M70.3,77v3.8c0,0.9-0.7,1.6-1.6,1.6c-0.4,0-0.8-0.2-1.1-0.5s-0.5-0.7-0.5-1.1v-5.2c0-0.1,0-0.3,0.1-0.4
			c0.5,0.3,1,0.5,1.5,0.8C69.3,76.4,69.8,76.7,70.3,77z"/>
		<path class="st4" d="M70.3,184.5v5.2c0,0.1,0,0.3-0.1,0.4c-0.5-0.3-1-0.5-1.5-0.8c-0.5-0.3-1.1-0.6-1.6-1v-3.8
			c0-0.9,0.7-1.6,1.6-1.6C69.6,182.9,70.3,183.6,70.3,184.5z"/>
		<path class="st4" d="M24.9,107.4c-0.3,0.5-0.8,0.8-1.4,0.8c-0.3,0-0.6-0.1-0.8-0.2l-3.3-1.9c0-0.6,0-1.2,0-1.9c0-0.6,0-1.2,0-1.7
			c0.1,0,0.3,0.1,0.4,0.2l4.5,2.6C25,105.6,25.3,106.6,24.9,107.4z"/>
		<path class="st4" d="M118.1,161.2c0,0.6,0,1.2,0,1.7c-0.1,0-0.3-0.1-0.4-0.2l-4.5-2.6c-0.4-0.2-0.6-0.6-0.7-1s0-0.8,0.2-1.2
			c0.4-0.8,1.4-1,2.2-0.6l3.3,1.9C118.1,159.9,118.1,160.5,118.1,161.2z"/>
		<path class="st4" d="M94.4,99.2l-1.8,2.5c-0.3,0.4-0.8,0.7-1.3,0.7c-0.3,0-0.6-0.1-0.9-0.3c-0.3-0.2-0.6-0.6-0.7-1
			c-0.1-0.4,0-0.8,0.3-1.2l2.3-3.2c0,0,0.1-0.1,0.1-0.1C93.1,97.5,93.8,98.3,94.4,99.2z"/>
		<path class="st4" d="M47.4,165.4l-2.3,3.2c0,0,0,0.1-0.1,0.1c-0.7-0.8-1.4-1.7-2.1-2.6l1.8-2.5c0.5-0.7,1.5-0.9,2.2-0.3
			C47.8,163.8,47.9,164.7,47.4,165.4z"/>
		<path class="st4" d="M112.1,130.6c0,0-0.1,0-0.1,0l-3.9,0.3h-0.1c-0.9,0-1.6-0.7-1.6-1.5c0-0.9,0.6-1.6,1.5-1.6l3.1-0.3
			C111.3,128.5,111.7,129.5,112.1,130.6z"/>
		<path class="st4" d="M31.1,135.9c0,0.4-0.1,0.8-0.4,1.2c-0.3,0.3-0.7,0.5-1.1,0.6l-3.1,0.3c-0.4-1-0.8-2.1-1.2-3c0,0,0.1,0,0.1,0
			l3.9-0.3C30.3,134.3,31.1,135,31.1,135.9z"/>
		<path class="st4" d="M112.4,184.3c-0.6,0.9-1.2,1.8-1.9,2.7l-3.8-4.8c-0.3-0.3-0.4-0.7-0.3-1.2s0.3-0.8,0.6-1.1
			c0.3-0.3,0.7-0.4,1.2-0.4c0.4,0,0.8,0.3,1.1,0.6L112.4,184.3z"/>
		<path class="st4" d="M30.6,85.4c-0.3,0.2-0.6,0.3-1,0.3c-0.5,0-0.9-0.2-1.2-0.6L25.1,81c0.6-0.9,1.2-1.8,1.9-2.7l3.8,4.8
			c0.3,0.3,0.4,0.7,0.4,1.2C31.1,84.7,30.9,85.1,30.6,85.4z"/>
		<path class="st4" d="M95,195.7c-1.1,0.2-2.2,0.3-3.3,0.3l-1.9-4.8c-0.2-0.4-0.1-0.8,0-1.2c0.2-0.4,0.5-0.7,0.9-0.8
			c0.4-0.1,0.8-0.1,1.2,0c0.4,0.2,0.7,0.5,0.8,0.9L95,195.7z"/>
		<path class="st4" d="M46.7,76.2c-0.2,0.1-0.4,0.1-0.6,0.1c-0.7,0-1.2-0.4-1.5-1l-2.2-5.7c1.1-0.2,2.2-0.3,3.3-0.3l1.9,4.8
			C47.9,74.9,47.5,75.8,46.7,76.2z"/>
	</g>
	<path class="st0" d="M50.4,22.2l7.6,13.2L27.7,52.9c-0.1,0-0.1,0-0.2,0.1c-2.5,1-4.8,2.3-7,3.9L13,43.6l-7.9,4.5
		c-6.8-11.6-6.8-24.2-0.2-28.2l0.4-0.2L35.4,2.3c0.1,0,0.2-0.1,0.2-0.1c6.8-3.9,17.9,2.5,24.7,14.3L50.4,22.2z"/>
	<path class="st5" d="M148.3,213.8L148.3,213.8l-30.5,17.6l-10.5-18.2c3.2-0.9,6.3-2.4,9-4.3l0,0l21.8-12.6L148.3,213.8z"/>
	<path class="st0" d="M124.3,107.6l-7.6,4.3c-2.2-4.1-4.5-8.1-7-11.9l7.7-4.4v0L124.3,107.6z"/>
	<path class="st5" d="M58.1,35.4L27.7,52.9c-0.1,0-0.1,0-0.2,0.1l-7.7-13.3v0l9.9-5.6l0,0l20.5-11.9h0L58.1,35.4z"/>
	<ellipse transform="matrix(0.8631 -0.505 0.505 0.8631 -57.5823 52.87)" class="st3" cx="68.7" cy="132.7" rx="5.5" ry="9.5"/>
	<g>
		<path class="st0" d="M29.8,34l-9.9,5.6l-6.9,4l-7.9,4.5c-6.8-11.6-6.8-24.2-0.2-28.2l0.4-0.2C12.1,16,23.1,22.3,29.8,34z"/>
		<path class="st0" d="M132.3,121.5l-8.1-13.9l-6.9-12v0l-9.7-16.8c0.4-0.2,0.8-0.4,1.2-0.6l0.1,0c6.9-2.5,17.1,3.8,23.5,14.9
			C139.1,104.9,139.1,117.6,132.3,121.5z"/>
	</g>
	<g>
		<path class="st6" d="M162.8,103.9l0.1,0.2l-30.4,17.6l-0.2-0.2c6.8-3.9,6.8-16.6,0-28.3c-6.4-11.1-16.6-17.4-23.5-14.9l29.3-16.9
			l0-0.1c6.8-3.9,17.9,2.5,24.7,14.2C169.6,87.4,169.6,100.1,162.8,103.9z"/>
		<path class="st6" d="M60.3,16.4l-9.9,5.7h0L29.9,34l0,0C23.1,22.3,12.1,16,5.3,19.6L35.4,2.3c0.1,0,0.2-0.1,0.2-0.1
			C42.4-1.8,53.5,4.6,60.3,16.4z"/>
	</g>
</g>
</svg>
