<?xml version="1.0" encoding="utf-8"?>
<!-- Generator: Adobe Illustrator 22.0.1, SVG Export Plug-In . SVG Version: 6.00 Build 0)  -->
<svg version="1.1" id="Layer_1" xmlns="http://www.w3.org/2000/svg" xmlns:xlink="http://www.w3.org/1999/xlink" x="0px" y="0px"
	 viewBox="0 0 177.7 284.9" style="enable-background:new 0 0 177.7 284.9;" xml:space="preserve">
<style type="text/css">
	.st0{fill:#1D1D1F;}
	.st1{fill:#928170;}
	.st2{fill:#A39282;}
	.st3{fill:#FFE7CA;}
	.st4{fill:#6B5B4D;}
	.st5{fill:#FECE00;}
	.st6{fill:#FBEED8;}
	.st7{fill:#EFD7AB;}
	.st8{fill:#EDCC9D;}
	.st9{fill:#FCF6ED;}
	.st10{fill:#F2DAB8;}
	.st11{fill:#EFD2A3;}
	.st12{fill:#FEDA44;}
</style>
<polygon class="st0" points="146.3,207.7 146.3,207.7 85.9,172.8 25.9,207.7 22,247.7 86.3,284.9 150.2,247.7 "/>
<polygon class="st1" points="146.3,207.7 86.3,242.5 25.9,207.7 85.9,172.8 "/>
<polygon class="st2" points="25.9,207.7 22,247.7 86.3,284.9 86.3,242.5 "/>
<polygon class="st3" points="29.9,245.3 32.5,219 78.7,245.7 78.7,273.5 "/>
<polygon class="st4" points="146.3,207.7 150.2,247.7 86.3,284.9 86.3,242.5 "/>
<path class="st5" d="M49.3,205.3L49.3,205.3l0,3.3c0,5.5,3.7,11.1,11.2,15.2c14.6,8.2,37.9,7.9,52-0.5c7-4.2,10.4-9.5,10.4-14.9
	l0-3.3l0,0c0-5.5-3.7-11.1-11.2-15.2c-5-2.8-10.9-4.6-17.2-5.4c-0.1-0.2-0.2-0.4-0.3-0.6c-0.6-1.2-1.3-2.9-1.8-4.2
	c-0.3-0.9-0.7-2.2-1-3.2c-0.3-1-0.6-2.3-0.7-3.3c-0.3-1.6-0.5-3.9-0.7-5.5c0,0,0,0,0,0v0c0-0.5,0-0.9-0.1-1.4c0,0,0,0,0,0
	c0-0.5,0-1,0-1.5c0,0.6-0.4,1.2-1.1,1.6c-1.5,0.9-4.1,1-5.7,0.1c-0.8-0.5-1.2-1.1-1.2-1.7c0,0.6,0,1.1,0,1.7c0,0,0,0,0,0
	c0,0.4,0,0.8,0,1.2c0,0,0,0,0,0c0,0,0,0,0,0c-0.1,1.5-0.3,3.6-0.6,5.1c-0.3,1.5-0.8,3.6-1.2,5.1c-0.2,0.9-0.7,2-1,2.9
	c-0.3,0.9-0.8,2-1.2,2.8c-0.1,0.3-0.3,0.6-0.5,1c-6.6,0.9-12.8,2.9-17.8,5.9C52.8,194.6,49.3,200,49.3,205.3L49.3,205.3L49.3,205.3
	L49.3,205.3z M80.6,176.5c-0.7,2.8-1.6,5.5-2.7,8C79,182,79.9,179.3,80.6,176.5z M81.9,167.7c-0.1,2.3-0.4,4.5-0.8,6.6
	C81.5,172.2,81.8,170,81.9,167.7z M80.9,175.5c-0.1,0.3-0.1,0.7-0.2,1C80.7,176.1,80.8,175.8,80.9,175.5z M81.1,174.4
	c-0.1,0.3-0.1,0.7-0.2,1C80.9,175.1,81,174.7,81.1,174.4z M91,174.3c-0.4-2.1-0.7-4.3-0.8-6.6C90.2,170,90.5,172.2,91,174.3z
	 M94.2,184.4c-1.1-2.5-2.1-5.2-2.8-8C92.1,179.3,93.1,181.9,94.2,184.4z M91.2,175.4c-0.1-0.3-0.1-0.7-0.2-1
	C91,174.7,91.1,175,91.2,175.4z M91.4,176.4c-0.1-0.3-0.2-0.7-0.2-1C91.3,175.8,91.3,176.1,91.4,176.4z"/>
<path class="st6" d="M49.3,205.3l0,3.3c0,5.5,3.7,11.1,11.2,15.2l0-3.3C53.1,216.4,49.3,210.9,49.3,205.3z"/>
<g>
	<path class="st7" d="M90,166.3c0-0.5,0-1,0-1.5C90,165.3,90,165.8,90,166.3z"/>
	<path class="st7" d="M81.9,167.7c0-0.4,0-0.8,0-1.2C81.9,166.9,81.9,167.4,81.9,167.7z"/>
	<path class="st7" d="M90.1,167.7c0-0.4-0.1-0.9-0.1-1.4C90.1,166.8,90.1,167.2,90.1,167.7z"/>
	<path class="st7" d="M81.9,166.5c0-0.6,0-1.2,0-1.6C82,165.4,82,166,81.9,166.5z"/>
	<path class="st8" d="M49.3,205.3c0-5.4,3.4-10.7,10.4-14.9c5-3,11.3-5,17.8-5.9c0.2-0.3,0.3-0.7,0.5-1c0.4-0.8,0.9-1.9,1.2-2.8
		c0.3-0.9,0.7-2,1-2.9c0.4-1.5,0.9-3.5,1.2-5.1c0.3-1.5,0.4-3.5,0.6-5.1c0,0,0,0,0,0c-0.3,6-1.7,11.7-4,16.8
		c5.4-0.7,10.9-0.7,16.3-0.1c-2.3-5-3.7-10.7-4.1-16.7c0,0,0,0,0,0c0.2,1.7,0.4,3.9,0.7,5.5c0.2,1,0.5,2.3,0.7,3.3
		c0.3,1,0.6,2.2,1,3.2c0.5,1.3,1.2,2.9,1.8,4.2c0.1,0.2,0.2,0.4,0.3,0.6c6.3,0.8,12.3,2.6,17.2,5.4c7.4,4.2,11.1,9.7,11.2,15.2
		c-10.4,0-19.7-5.9-25.7-15.3c-0.2-0.1-0.4-0.1-0.5-0.2c-0.4-0.1-0.8-0.3-1.2-0.4c-0.4-0.1-1-0.2-1.4-0.3c-0.4-0.1-1-0.2-1.5-0.3
		c0,0-1.5-0.3-3.3-0.4c-1.6-0.1-2.8-0.1-3.5-0.1c-2.9,0-5.7,0.4-6.8,0.7c-0.4,0.1-1,0.2-1.4,0.3c-0.4,0.1-0.9,0.2-1.4,0.4
		c-0.4,0.1-0.8,0.3-1.2,0.4c0,0,0,0,0,0C69,199.3,59.7,205.3,49.3,205.3z"/>
</g>
<path class="st9" d="M82,164.9c0.1,22.3-14.6,40.4-32.7,40.5c0,5.5,3.7,11.1,11.2,15.2c12.6-7.5,22.8-31.8,22.7-54
	C82.4,166.1,82,165.5,82,164.9z"/>
<path class="st10" d="M122.9,205.1c-18.1,0.1-32.8-18-32.9-40.3c0,0.6-0.4,1.2-1.1,1.6c-1.5,0.9-4.1,1-5.7,0.1
	c0.1,22.3-10.1,46.5-22.7,54c14.6,8.2,37.9,7.9,52-0.5C119.5,215.9,122.9,210.5,122.9,205.1z"/>
<path class="st11" d="M122.9,208.4l0-3.3c0,5.4-3.4,10.7-10.4,14.9c-14.2,8.5-37.5,8.7-52,0.5l0,3.3c14.6,8.2,37.9,7.9,52-0.5
	C119.5,219.2,122.9,213.8,122.9,208.4z"/>
<path class="st12" d="M157.9,84.2c0-0.1,0-0.2,0-0.3C157.9,84,157.9,84.1,157.9,84.2c0.1-10.2-6.3-20.3-19.5-28.2
	c-26.5-15.8-70-16.3-97.3-1c-13.9,7.8-20.9,18.3-20.8,28.7c0-0.1,0-0.2,0-0.2c0,1,0,4,0.2,7.9c0.1,1.2,0.2,2.8,0.3,4
	c0.1,1.1,0.3,2.6,0.4,3.8c0.1,1.2,0.4,2.8,0.6,4c0.2,1.1,0.5,2.6,0.7,3.7c0.2,1.2,0.6,2.7,0.8,3.9c0.3,1.2,0.7,2.7,1,3.9
	c0.3,1.1,0.7,2.5,1,3.5c0.3,1.1,0.9,2.7,1.3,3.8c0.7,2.1,1.8,4.7,2.6,6.8c0.5,1.1,1.1,2.6,1.7,3.6c0.8,1.6,2.7,5.5,5.7,10.2
	c1.1,1.8,2.8,4,4,5.7c0.8,1,1.8,2.3,2.7,3.3c0.7,0.8,1.7,2,2.5,2.8c1.5,1.5,3.4,3.4,5,4.8c2.2,1.9,4.9,4.2,9.7,7
	c1.3,0.8,3,1.7,4.3,2.4c1,0.5,2.4,1.1,3.4,1.6c1.6,0.6,3.6,1.4,5.2,1.9c0.8,0.3,2,0.6,2.8,0.8c0.7,0.2,1.7,0.4,2.5,0.5
	c1.4,0.3,5.1,0.8,7.3,0.9c3.1,0.1,3.1,0.1,4.7,0c1.8-0.1,1.8-0.1,4.8-0.4c1.6-0.2,3-0.5,5.1-0.9c1-0.2,2.2-0.5,3.1-0.8
	c1.6-0.5,3.7-1.2,5.3-1.8c1.3-0.5,2.9-1.3,4.1-1.8c1.5-0.7,3.3-1.8,4.7-2.6c0.8-0.5,1.9-1.2,2.7-1.8c0.8-0.6,1.9-1.3,2.7-1.9
	c1.2-0.9,2.7-2.1,3.8-3.1c2.3-1.9,5.3-5.1,5.5-5.4c1.4-1.5,3.2-3.6,4.5-5.2c0.8-0.9,1.7-2.2,2.4-3.3c0.7-1,1.6-2.3,2.2-3.3
	c1.1-1.8,2.6-4.2,3.6-6.1c0.6-1,1.3-2.4,1.8-3.5c0.5-1,1.1-2.3,1.5-3.3c0.5-1.1,1.1-2.5,1.5-3.6c0.4-1.1,1-2.6,1.4-3.7
	c0.7-2.1,1.6-4.9,2.2-7c0.5-1.6,1.5-5.7,1.8-7.7c0.4-2.2,0.9-5.2,1.2-7.4c0.2-1.2,0.3-2.8,0.5-4c0.1-1.2,0.3-2.8,0.3-4
	c0.1-2.1,0.2-4.8,0.2-7C157.9,84.5,157.9,84.4,157.9,84.2z"/>
<path class="st11" d="M52.7,147.7c-0.6-0.7-1.4-1.6-2-2.3c-0.7-0.9-1.7-2-2.4-3c-1.1-1.5-2.6-3.6-3.6-5.1c-0.6-0.9-1.4-2.2-1.9-3.2
	c-1.6-2.7-3.1-5.7-3.2-6.1c-0.5-1-1.1-2.3-1.5-3.3c-0.8-1.8-1.7-4.3-2.4-6.1c-0.9-2.4-1.8-5.8-2.1-6.9c-0.5-2-1.1-4.6-1.5-6.6
	c-0.2-1.1-0.5-2.5-0.6-3.6c-0.2-1.1-0.4-2.5-0.5-3.6c-0.2-2.1-0.5-4.8-0.7-6.9c0,0-0.2-3.2-0.2-7.4c0-8.9,6-17.8,18-24.5l0,0
	c23.5-13.2,61-12.8,83.9,0.8c11.2,6.7,16.8,15.4,16.8,24c0,2.1-0.1,4.9-0.2,7c-0.2,2.6-0.2,2.9-0.7,7.1c-0.1,1.1-0.4,2.5-0.5,3.6
	c-0.2,1-0.4,2.4-0.6,3.4c-0.2,1.1-0.5,2.5-0.8,3.5c-0.2,1.1-0.6,2.5-0.9,3.5c-0.3,1-0.7,2.3-0.9,3.2c-0.3,1-0.8,2.4-1.1,3.4
	c-0.7,1.9-1.6,4.3-2.4,6.1c-0.4,1-1,2.3-1.5,3.2c-0.4,1-1.1,2.2-1.6,3.2c-0.5,0.9-1.1,2-1.6,2.8c-0.5,0.9-1.3,2.2-1.9,3.1
	c-1,1.6-2.5,3.6-3.6,5.1c-0.7,0.9-1.6,2-2.3,2.8c-0.7,0.9-1.7,2-2.5,2.8c-1.2,1.2-2.9,2.9-4.2,4c-0.8,0.8-2,1.7-2.9,2.4
	c-1,0.8-2.3,1.7-3.4,2.4c-1,0.7-2.3,1.5-3.4,2.1c-1.4,0.7-3.2,1.7-4.6,2.3c-3.7,1.6-6.6,2.3-8.2,2.7c-0.5,0.1-2,0.5-4.2,0.7
	c-1.8,0.2-3.2,0.3-3.9,0.3c-0.6,0-2,0.1-3.8,0c-1.7-0.1-2.6-0.2-3.9-0.4c-1.2-0.2-2.9-0.5-4.1-0.8c-2.1-0.5-3.1-0.9-4.5-1.3
	c-0.9-0.3-2-0.7-2.8-1.1c-1.4-0.6-3.2-1.5-4.5-2.2c-1.1-0.6-2.6-1.5-3.6-2.2c-1.4-0.9-3.2-2.3-4.5-3.3c-1-0.8-2.3-2-3.3-2.9
	c-0.6-0.6-1.5-1.4-2.1-2.1C53.1,148.2,52.9,147.9,52.7,147.7z"/>
<path class="st3" d="M60.6,166.3c-4.8-2.9-7.5-5.2-9.7-7c-1.6-1.3-3.5-3.3-5-4.8c-0.8-0.8-1.8-1.9-2.5-2.8c-0.8-1-1.9-2.3-2.7-3.3
	c-1.3-1.7-2.9-3.9-4-5.7c-3.1-4.7-4.9-8.6-5.7-10.2c-0.5-1.1-1.2-2.5-1.7-3.6c-0.8-2-1.9-4.7-2.6-6.8c-0.4-1.1-0.9-2.6-1.3-3.8
	c-0.3-1.1-0.7-2.5-1-3.5c-0.3-1.2-0.7-2.7-1-3.9c-0.3-1.2-0.6-2.7-0.8-3.9c-0.2-1.1-0.5-2.6-0.7-3.7c-0.2-1.2-0.4-2.8-0.6-4
	c-0.1-1.1-0.3-2.6-0.4-3.8c-0.1-1.2-0.2-2.8-0.3-4c-0.2-3.9-0.2-6.9-0.2-7.9c0,10,6.4,20.1,19.5,27.9c26.5,15.8,70,16.3,97.3,1
	c13.8-7.8,20.8-18.1,20.8-28.5c0,2.3-0.1,5.4-0.3,7.7c-0.1,1.2-0.2,2.8-0.3,4c-0.1,1.2-0.3,2.8-0.5,4c-0.3,2.2-0.8,5.2-1.2,7.4
	c-0.4,2-1.4,6.2-1.8,7.7c-0.6,2.1-1.5,4.9-2.2,7c-0.4,1.1-0.9,2.6-1.4,3.7c-0.4,1.1-1,2.6-1.5,3.6c-0.4,1-1.1,2.3-1.5,3.3
	c-0.5,1.1-1.2,2.5-1.8,3.5c-1,1.9-2.5,4.3-3.6,6.1c-0.6,1-1.6,2.3-2.2,3.3c-0.7,1-1.7,2.3-2.4,3.3c-1.3,1.6-3.1,3.7-4.5,5.2
	c-0.2,0.2-3.3,3.4-5.5,5.4c-1.1,0.9-2.6,2.2-3.8,3.1c-0.8,0.6-1.9,1.4-2.7,1.9c-0.8,0.5-1.9,1.3-2.7,1.8c-1.4,0.8-3.2,1.9-4.7,2.6
	c-1.2,0.6-2.8,1.3-4.1,1.8c-1.6,0.6-3.7,1.3-5.3,1.8c-0.9,0.3-2.2,0.6-3.1,0.8c-2.1,0.4-3.5,0.7-5.1,0.9c-3,0.3-3,0.3-4.8,0.4
	c-1.6,0.1-1.6,0.1-4.7,0c-2.2-0.1-5.8-0.6-7.3-0.9c-0.7-0.2-1.7-0.4-2.5-0.5c-0.9-0.2-2-0.5-2.8-0.8c-1.6-0.5-3.7-1.3-5.2-1.9
	c-1.1-0.4-2.4-1-3.4-1.6C63.6,168,61.9,167,60.6,166.3z"/>
<path class="st9" d="M41.2,55.1c27.2-15.3,70.8-14.8,97.3,1s25.9,41.1-1.4,56.3s-70.8,14.8-97.3-1S14,70.4,41.2,55.1z M47.8,59.1
	c-23.5,13.2-24,34.9-1.2,48.6s60.4,14,83.9,0.8s24-34.9,1.2-48.6S71.3,45.9,47.8,59.1"/>
<path class="st3" d="M136,0l5.2,9.5c1.7,3.1,4.2,5.6,7.2,7.2l9.5,5.2l-9.5,5.2c-3.1,1.7-5.6,4.2-7.2,7.2l-5.2,9.5l-5.2-9.5
	c-1.7-3.1-4.2-5.6-7.2-7.2L114,22l9.5-5.2c3.1-1.7,5.6-4.2,7.2-7.2L136,0z"/>
<path class="st3" d="M163.9,134.3l3.3,5.9c1,1.9,2.6,3.5,4.5,4.5l5.9,3.3l-5.9,3.3c-1.9,1-3.5,2.6-4.5,4.5l-3.3,5.9l-3.3-5.9
	c-1-1.9-2.6-3.5-4.5-4.5l-5.9-3.3l5.9-3.3c1.9-1,3.5-2.6,4.5-4.5L163.9,134.3z"/>
<path class="st10" d="M16.6,27.3l3.9,7.2c1.3,2.3,3.2,4.2,5.5,5.5l7.2,3.9L26,47.9c-2.3,1.3-4.2,3.2-5.5,5.5l-3.9,7.2l-3.9-7.2
	c-1.3-2.3-3.2-4.2-5.5-5.5L0,43.9L7.2,40c2.3-1.3,4.2-3.2,5.5-5.5L16.6,27.3z"/>
</svg>
