<?xml version="1.0" encoding="utf-8"?>
<!-- Generator: Adobe Illustrator 22.0.1, SVG Export Plug-In . SVG Version: 6.00 Build 0)  -->
<svg version="1.1" id="Слой_3" xmlns="http://www.w3.org/2000/svg" xmlns:xlink="http://www.w3.org/1999/xlink" x="0px" y="0px"
	 viewBox="0 0 201.6 127.4" style="enable-background:new 0 0 201.6 127.4;" xml:space="preserve">
<style type="text/css">
	.st0{fill:#EA7878;}
	.st1{fill:#F49D9D;}
	.st2{fill:#CE5959;}
	.st3{enable-background:new    ;}
	.st4{fill:#E6EBED;}
	.st5{fill:#717275;}
	.st6{fill:#A39282;}
	.st7{fill:#898890;}
	.st8{fill:#ACABB1;}
	.st9{fill:#A0A8A8;}
	.st10{fill:#C1C6C6;}
	.st11{fill:#A5B4B4;}
</style>
<polygon class="st0" points="121.8,0 201.6,46.4 201.6,54.8 79.8,125.1 0,78.8 0,70.3 "/>
<polygon class="st1" points="0,70.3 0,81.1 79.8,127.4 79.8,116.7 "/>
<polygon class="st2" points="79.8,116.7 79.8,127.4 201.6,57.1 201.6,46.4 "/>
<g class="st3">
	<polygon class="st4" points="119,5.3 191.9,47.3 89.5,106.5 16.3,64.2 	"/>
	<path class="st5" d="M108.5,32.1l42.2,24.5l1.5-0.9L110,31.2L108.5,32.1"/>
	<ellipse transform="matrix(0.2275 -0.9738 0.9738 0.2275 53.7743 122.6962)" class="st6" cx="104.2" cy="27.5" rx="2" ry="3.5"/>
	<path class="st5" d="M93.4,41.4l42.2,24.5l1.5-0.9L94.9,40.5L93.4,41.4"/>
	<ellipse transform="matrix(0.2275 -0.9738 0.9738 0.2275 33.1274 115.1942)" class="st6" cx="89.2" cy="36.7" rx="2" ry="3.5"/>
	<path class="st5" d="M77.2,51.8l42.2,24.5l1.5-0.9L78.7,50.9L77.2,51.8"/>
	<ellipse transform="matrix(0.2275 -0.9738 0.9738 0.2275 10.4588 107.4592)" class="st6" cx="73" cy="47.1" rx="2" ry="3.5"/>
	<path class="st5" d="M61,62.2l42.2,24.5l1.5-0.9L62.5,61.3L61,62.2"/>
	<ellipse transform="matrix(0.2275 -0.9738 0.9738 0.2275 -12.2099 99.7243)" class="st6" cx="56.8" cy="57.6" rx="2" ry="3.5"/>
</g>
<path class="st7" d="M152.3,15.7l0,0.6l15.4,8.9l4.8-2.8c0.2-0.1,0.3-0.3,0.3-0.4l0-0.6c0,0,0,0,0,0c0-0.1-0.1-0.3-0.3-0.4l-2-1.1
	c1-0.7,1.4-1.5,1.4-2.4l0-0.6c0,0,0,0,0,0c0-1-0.6-1.9-1.9-2.6c-2.5-1.5-6.6-1.5-9.1,0l-2.5-1.4c-0.4-0.2-1-0.2-1.3,0L152.3,15.7z
	 M167.9,18.4c-1.3,0.8-3.5,0.8-4.8,0c-0.5-0.3-0.8-0.7-1-1.1c0.1-0.4,0.4-0.8,1-1.1c1.3-0.8,3.5-0.8,4.8,0c0.5,0.3,0.8,0.7,1,1.1
	C168.7,17.7,168.4,18.1,167.9,18.4z"/>
<g>
	<polygon class="st8" points="152.3,15.7 152.3,16.3 167.7,25.2 167.7,24.6 	"/>
	<path class="st9" d="M158.5,12.9l2.5,1.4c2.5-1.5,6.6-1.5,9.1,0c2.5,1.5,2.5,3.8,0,5.3l2.5,1.4c0.4,0.2,0.4,0.6,0,0.8l-4.8,2.8
		l-15.4-8.9l4.8-2.8C157.5,12.7,158.1,12.7,158.5,12.9z M167.9,18.4c1.3-0.8,1.4-2,0-2.8c-1.3-0.8-3.5-0.8-4.8,0
		c-1.3,0.8-1.4,2,0,2.8C164.4,19.2,166.5,19.2,167.9,18.4"/>
</g>
<path class="st10" d="M136,21.8l25.8,15l0.7-0.4c0-3.5,2.4-7.7,5.5-9.5c0,0,0,0,0.1,0l5.4,3.2l0.7,0.4v-0.9c0-1-0.2-1.8-0.5-2.5
	c-0.3-0.7-0.8-1.2-1.3-1.5c0,0,0,0,0,0l-25.8-15c0,0,0,0,0,0c-0.6-0.3-1.2-0.5-2-0.4c-0.8,0.1-1.6,0.4-2.4,0.8
	c-0.8,0.5-1.7,1.1-2.4,2c-0.7,0.8-1.4,1.7-2,2.7c-0.6,1-1,2-1.3,3C136.1,19.8,136,20.9,136,21.8z"/>
<path class="st11" d="M172.4,25.6l-25.8-15c0,0,0,0,0,0c-0.6-0.3-1.2-0.5-2-0.4c-0.8,0.1-1.6,0.4-2.4,0.8l25.8,15
	c0.8-0.5,1.7-0.8,2.4-0.8C171.1,25.1,171.8,25.3,172.4,25.6C172.3,25.6,172.3,25.6,172.4,25.6z"/>
<path class="st7" d="M162.2,33.7c0.3-1,0.8-2.1,1.3-3c0.6-1,1.2-1.9,2-2.7c0.8-0.8,1.6-1.5,2.4-2c0.8-0.5,1.7-0.8,2.4-0.8
	c0.7-0.1,1.4,0.1,2,0.4c0.6,0.3,1,0.8,1.3,1.5c0.3,0.7,0.5,1.5,0.5,2.5v0.9l-0.7-0.4c0-3.5-2.5-4.9-5.5-3.1c-3,1.7-5.5,6-5.5,9.5
	l-0.7,0.4C161.7,35.8,161.9,34.8,162.2,33.7z"/>
</svg>
