<?xml version="1.0" encoding="utf-8"?>
<!-- Generator: Adobe Illustrator 22.0.1, SVG Export Plug-In . SVG Version: 6.00 Build 0)  -->
<svg version="1.1" id="Capa_1" xmlns="http://www.w3.org/2000/svg" xmlns:xlink="http://www.w3.org/1999/xlink" x="0px" y="0px"
	 viewBox="0 0 251.7 203.6" style="enable-background:new 0 0 251.7 203.6;" xml:space="preserve">
<style type="text/css">
	.st0{fill:#E6EBED;}
	.st1{fill:#A5B4B4;}
	.st2{fill:#F7F7F7;}
	.st3{fill:#FCF2E3;}
	.st4{fill:#EA7878;}
	.st5{fill:#D5BFA3;}
	.st6{fill:#CE5959;}
	.st7{fill:#BFA057;}
	.st8{fill:#EFD2A3;}
	.st9{fill:#A39282;}
</style>
<g>
	<polygon class="st0" points="1.2,90.5 55.3,70.2 90.8,56.8 127.2,43.1 251.7,137.6 178.7,165.1 125.7,185 	"/>
	<polygon class="st1" points="124.5,203.6 125.7,185 178.7,165.1 251.7,137.6 250.5,156.2 177.5,183.6 	"/>
	<polygon class="st2" points="0,109.1 1.2,90.5 125.7,185 124.5,203.6 	"/>
	<path class="st3" d="M204.5,47.3l-74.2,74.2l-0.1,0.1l-25.2,5.1l-1.3-5.3l1.2-26.5L179,20.8l18.2-18.2c2.4-2.2,5.7-3.1,8.9-2.4
		l10.2,2.9c1.1,0.2,2,1,2.4,2l0.1,0.3l5,20.1c0.3,1.2,0,2.5-0.9,3.4L204.5,47.3z"/>
	<path class="st4" d="M217.4,8.5c0.9-0.7,1.3-1.8,1.3-2.9l-0.1-0.3c-0.3-1.1-1.3-1.9-2.4-2l-10.2-2.9c-3.2-0.7-6.5,0.2-8.9,2.4
		L179,20.8l0,0l20.2,5.8l0,0L217.4,8.5z"/>
	<polygon class="st5" points="124.9,100.8 104.7,95 103.5,121.5 	"/>
	<path class="st6" d="M222.8,29.1c0.9-0.9,1.2-2.2,0.9-3.4l-5-20.1c0,1.1-0.5,2.2-1.3,2.9l-18.2,18.1l0,0l5.1,20.4l0.2,0.2
		L222.8,29.1z"/>
	<g>
		<path class="st7" d="M218.7,5.6l-0.1-0.3"/>
		<polygon class="st8" points="204.5,47.3 204.2,47.1 199.2,26.7 124.9,100.8 130,121.3 130.2,121.5 		"/>
	</g>
	<polygon class="st9" points="130.1,121.6 130.2,121.5 130,121.3 124.9,100.8 103.5,121.5 104.9,126.7 	"/>
</g>
</svg>
