<?xml version="1.0" encoding="utf-8"?>
<!-- Generator: Adobe Illustrator 22.0.1, SVG Export Plug-In . SVG Version: 6.00 Build 0)  -->
<svg version="1.1" id="Capa_1" xmlns="http://www.w3.org/2000/svg" xmlns:xlink="http://www.w3.org/1999/xlink" x="0px" y="0px"
	 viewBox="0 0 623 622.3" style="enable-background:new 0 0 623 622.3;" xml:space="preserve">
<style type="text/css">
	.st0{opacity:0.3;}
	.st1{opacity:0.12;}
	.st2{fill:#F4CF98;}
	.st3{fill:#B7A8D9;}
	.st4{fill:#FFE7CA;}
	.st5{fill:#CBD1D1;}
	.st6{fill:#D9CFF9;}
	.st7{fill:#BFB3E2;}
	.st8{fill:#A7A8A8;}
</style>
<g class="st0">
	
		<image style="overflow:visible;enable-background:new    ;" width="139" height="725" xlink:href="C297D227.png"  transform="matrix(0.7071 0.7071 -0.7071 0.7071 512.6524 0)">
	</image>
</g>
<g class="st1">
	
		<image style="overflow:visible;enable-background:new    ;" width="158" height="720" xlink:href="C297D225.png"  transform="matrix(0.7071 0.7071 -0.7071 0.7071 511.2382 1.4142)">
	</image>
</g>
<rect x="169" y="219.1" transform="matrix(0.7071 -0.7071 0.7071 0.7071 -68.8693 331.7888)" class="st2" width="394.1" height="59.9"/>
<rect x="91.5" y="414.4" transform="matrix(0.7071 -0.7071 0.7071 0.7071 -264.2076 250.8771)" class="st3" width="158.4" height="59.9"/>
<path class="st4" d="M135.9,521.5l-42.4-42.4l-24.2,58l-6.6,6.6c-2.4,2.3-2.5,6.2-0.2,8.6c2.3,2.4,6.2,2.5,8.6,0.2
	c0.1-0.1,0.1-0.1,0.1-0.1l6.6-6.6L135.9,521.5z"/>
<path class="st2" d="M104.4,490.1l-10.9-10.9l-24.2,58l-6.6,6.6c-2.4,2.3-2.5,6.2-0.2,8.6C63.9,551.2,104.4,490.1,104.4,490.1z"/>
<path class="st5" d="M69.4,537.2l-6.6,6.6c-2.4,2.3-2.5,6.2-0.2,8.6c2.3,2.4,6.2,2.5,8.6,0.2c0.1-0.1,0.1-0.1,0.1-0.1l6.6-6.6
	L69.4,537.2z"/>
<path class="st3" d="M423.3,263.7c-3.4,0-6.1-2.7-6.1-6.1c0-1.6,0.6-3.2,1.8-4.3l86.5-86.5L455.7,117c-2.3-2.4-2.3-6.2,0.2-8.6
	c2.4-2.3,6.1-2.3,8.3,0l54.2,54.2c2.3,2.3,2.4,6.2,0,8.6l-90.9,90.9C426.5,263.1,424.9,263.7,423.3,263.7z"/>
<path class="st6" d="M498.1,159.4l-42.4-42.4c-2.3-2.4-2.3-6.2,0.2-8.6c2.4-2.3,6.1-2.3,8.3,0l42.4,42.4L498.1,159.4z"/>
<path class="st3" d="M466.4,127.7L455.7,117c-2.3-2.4-2.3-6.2,0.2-8.6c2.4-2.3,6.1-2.3,8.3,0l10.7,10.7L466.4,127.7z"/>
<path class="st7" d="M487.6,148.8l10,10c2.4,2.3,6.2,2.3,8.6-0.2c2.3-2.4,2.3-6.1,0-8.3l-10-10L487.6,148.8z"/>
<rect x="497.9" y="78.7" transform="matrix(0.7071 -0.7071 0.7071 0.7071 88.6387 397.0308)" class="st5" width="51.4" height="25.7"/>
<g>
	
		<rect x="185.5" y="258.8" transform="matrix(0.7071 -0.7071 0.7071 0.7071 -87.4963 336.4583)" class="st2" width="353.8" height="30"/>
	<polygon class="st2" points="485.4,129.6 506.6,150.8 526.6,130.9 514.5,118.8 505.4,109.7 	"/>
</g>
<g>
	
		<rect x="175.2" y="250.3" transform="matrix(0.7071 -0.7071 0.7071 0.7071 -83.2493 326.2052)" class="st4" width="353.8" height="26.6"/>
	<polygon class="st4" points="476.4,120.5 495.2,139.4 515.1,119.4 504.2,108.5 496.3,100.6 	"/>
</g>
<rect x="102.1" y="439.9" transform="matrix(0.7071 -0.7071 0.7071 0.7071 -268.5863 261.4483)" class="st3" width="158.4" height="30"/>
<rect x="91.8" y="429.7" transform="matrix(0.7071 -0.7071 0.7071 0.7071 -264.3394 251.1953)" class="st6" width="158.4" height="30"/>
<path class="st2" d="M62.7,552.3c2.3,2.3,6.2,2.4,8.6,0l6.6-6.6l58-24.2l-10.3-10.3L62.7,552.3z"/>
<path class="st8" d="M62.7,552.3c2.3,2.3,6.2,2.4,8.6,0l6.6-6.6l-4.3-4.3L62.7,552.3z"/>
<rect x="502.4" y="89.6" transform="matrix(0.7071 -0.7071 0.7071 0.7071 86.7788 401.5209)" class="st8" width="51.4" height="12.8"/>
</svg>
