<?xml version="1.0" encoding="utf-8"?>
<!-- Generator: Adobe Illustrator 22.0.1, SVG Export Plug-In . SVG Version: 6.00 Build 0)  -->
<svg version="1.1" id="Слой_2" xmlns="http://www.w3.org/2000/svg" xmlns:xlink="http://www.w3.org/1999/xlink" x="0px" y="0px"
	 viewBox="0 0 137.2 165.2" style="enable-background:new 0 0 137.2 165.2;" xml:space="preserve">
<style type="text/css">
	.st0{fill:#C1C6C6;}
	.st1{fill:#A0A8A8;}
	.st2{fill:#B4B4B3;}
	.st3{fill:#E6EBED;}
	.st4{fill:#B4B5B5;}
	.st5{fill:#CE5959;}
	.st6{fill:#EA7878;}
	.st7{fill:#717275;}
	.st8{fill:#EDCC9D;}
</style>
<g transform="translate(0 -1)">
	<path class="st0" d="M137.1,90.7c0-16.3-11.5-36.1-25.7-44.3c-6.9-4-13.3-4.5-17.9-2l0,0l-0.7,0.3c0.2-0.1,0.4-0.3,0.6-0.4
		L56.3,22.9c0,0,0,0,0,0c0,0,0,0,0,0C52,15.4,45.9,9.1,38.5,4.5c-6.9-4-13.2-4.5-17.8-2l-0.1,0L8.4,8.6l0,0C3.2,11.1,0,17,0,25.6
		C0.1,32,1.6,38.2,4.2,44L1.6,85.6c0.6,10.5,6.1,20,14.9,25.7c2,1.3,4.3,2,6.7,2c1.2,0,2.4-0.2,3.5-0.8l0.3-0.1l12.2-6.1l0,0
		c2.2-1,3.9-3,4.5-5.4l2.3-6.5c1.5,2,3.4,3.7,5.5,4.9c2,1.4,4.6,1.8,7,1.1l1-0.5l0,0l3.6-1.7c1.6,5.6,5.2,10.5,10.1,13.7
		c2.3,1.7,5.4,1.9,7.9,0.6l0.1,0l0,0l4.4-2.2l8.3,33.6c1,4.3,2.9,8.3,5.4,11.9c2.3,3.4,5.4,6.4,8.9,8.5c4.2,2.4,7.9,2.6,10.6,1
		l0.2-0.1l0,0l12-6v0c3-1.4,5-4.8,5-9.9l-2.7-45.2C136,100.2,137.4,95.5,137.1,90.7z M83.8,103.9c0-0.3-0.1-0.6-0.1-0.9l0.3,1
		C83.9,103.9,83.9,103.9,83.8,103.9L83.8,103.9z"/>
	<path class="st1" d="M45.9,94.3L45.9,94.3l-2.3,6.6c-0.6,2.4-2.2,4.4-4.5,5.4l0,0L27,112.4c1.9-1.1,3.3-3,3.8-5.1l10-28.9
		c-0.1,0.7-0.2,1.4-0.2,2.1C40.9,85.6,42.7,90.4,45.9,94.3z"/>
	<g>
		<path class="st2" d="M4.2,43.2l0,0.8"/>
		<path class="st0" d="M123,155.7c0,1-0.1,2-0.2,3c-0.3,2.6-1.7,5-3.9,6.5l0,0l-0.2,0.1c-2.7,1.6-6.5,1.3-10.6-1
			c-3.5-2.2-6.6-5.1-8.9-8.5c-2.5-3.6-4.4-7.6-5.4-11.9l-8.3-33.6l6.4-3.2c2,1.8,4.3,3.5,6.7,4.8c9.2,5.3,17.3,4.4,21.8-1.3
			L123,155.7z"/>
	</g>
	<path class="st3" d="M83.9,105.6c0.2,2.6-0.8,5.1-2.8,6.7l0,0l-0.1,0c-2.5,1.3-5.6,1.1-7.9-0.6c-4.9-3.2-8.5-8-10.1-13.7
		c-0.4-1.3-0.6-2.6-0.7-4c0-0.3,0-0.7,0-1c0-0.4,0-0.7,0-1.1c0-0.2,0-0.4,0-0.6c0.7-5.7,5.3-7.8,10.8-4.6c0.7,0.4,1.4,0.9,2,1.4
		c0,0,0.1,0.1,0.1,0.1c3.7,3.1,6.4,7.2,7.8,11.7l0.6,2.3l0.1,0.3c0,0.1,0,0.1,0,0.2c0,0.1,0,0.1,0,0.2c0,0.3,0.1,0.6,0.1,0.9
		C83.9,104.4,83.9,105,83.9,105.6z"/>
	<g>
		<path class="st2" d="M62.3,92c0,0.4,0,0.7,0,1.1c0,0.3,0,0.7,0,1c0-0.4,0-0.7,0-1.1C62.2,92.7,62.2,92.4,62.3,92z"/>
		<path class="st2" d="M83.6,102.3L83,100C83.3,100.8,83.5,101.5,83.6,102.3z"/>
	</g>
	<path class="st3" d="M62.2,93.1c0,0.3,0,0.7,0,1.1c0,2.3-1,4.4-2.8,5.7l0,0l-1,0.5c-2.4,0.8-5,0.4-7-1.1c-2.1-1.3-4-3-5.5-4.9v0
		c-3.2-3.9-5.1-8.7-5.3-13.8c0-0.7,0-1.4,0.2-2.1l0.9-2.6c1.7-3.2,5.5-3.9,9.8-1.4c0.4,0.2,0.8,0.4,1.1,0.7c0.3,0.2,0.7,0.5,1,0.8
		c4.7,3.9,7.8,9.5,8.6,15.5c0,0.2,0.1,0.4,0.1,0.7C62.2,92.4,62.2,92.7,62.2,93.1z"/>
	<g>
		<path class="st2" d="M40.8,78.3c0.2-0.9,0.5-1.8,0.9-2.5L40.8,78.3L40.8,78.3z"/>
		<path class="st2" d="M62.3,93.1c0,0.3,0,0.7,0,1C62.2,93.7,62.2,93.4,62.3,93.1c-0.1-0.4-0.1-0.8,0-1.1
			C62.3,92.4,62.3,92.8,62.3,93.1z"/>
	</g>
	<path class="st3" d="M51.3,55.2c0,8.8-3.4,14.8-8.7,17.1c-4.5,1.9-10.4,1.3-16.9-2.5c-2.1-1.2-4-2.6-5.8-4.1
		c-0.6-0.5-1.3-1.1-1.9-1.7c0,0,0,0,0,0c-0.4-0.4-0.8-0.8-1.2-1.2c-0.4-0.4-0.8-0.8-1.2-1.2v0C10.8,56.5,6.9,50.5,4.2,44
		C1.6,38.2,0.1,32,0,25.6C0,17,3.2,11.1,8.4,8.7C13,6.5,19,7.1,25.7,11c7.3,4.5,13.4,10.8,17.7,18.3l0,0l0.1,0
		C48.2,37.1,51,46,51.3,55.2z"/>
	<path class="st2" d="M43.4,29.3L43.4,29.3L43.4,29.3C43.4,29.3,43.4,29.3,43.4,29.3z"/>
	<g>
		<path class="st1" d="M93.6,44.4c-0.2,0.1-0.4,0.2-0.6,0.4l-11.3,5.6l-0.9,0.4h0l-17.4-10l-20-11.5c0,0,0,0,0-0.1l12.8-6.4l0.1,0
			c0,0,0,0,0,0c0,0,0,0,0,0L93.6,44.4z"/>
		<path class="st1" d="M135.9,149.2c0,5.1-1.9,8.5-5,9.9v0l-12,6c2.1-1.5,3.5-3.9,3.9-6.5c0.2-1,0.2-2,0.2-3l-2.6-45.2v0l0,0
			l12.8-6.4L135.9,149.2z"/>
		<path class="st4" d="M56.2,22.9L56.2,22.9l-12.9,6.4C39.1,21.8,33,15.5,25.7,11C19,7.1,13,6.5,8.4,8.7l0,0l12.3-6.1l0.1,0
			c4.6-2.5,10.9-2,17.8,2C45.9,9.1,52,15.4,56.2,22.9z"/>
	</g>
	<path class="st3" d="M124.3,97.2c0.2,4.7-1.1,9.4-3.9,13.3l0,0v0c-4.5,5.7-12.6,6.6-21.8,1.3c-2.4-1.4-4.6-3-6.7-4.8
		c-10.9-9.7-19-25.8-19-39.4c0-8.3,3-14.1,7.8-16.6h0l0.9-0.4c4.5-2,10.4-1.3,16.9,2.4C112.8,61.1,124.3,80.9,124.3,97.2z"/>
	<path class="st4" d="M137.1,90.7c0.2,4.8-1.1,9.5-3.9,13.3l-12.8,6.4c2.7-3.9,4.1-8.5,3.9-13.3c0-16.3-11.5-36.1-25.7-44.3
		c-6.5-3.8-12.4-4.4-16.9-2.4l11.3-5.6l0.7-0.3l0,0c4.6-2.5,10.9-2,17.9,2C125.6,54.6,137.1,74.5,137.1,90.7z"/>
	<g>
		<path class="st2" d="M39.5,106.2l-0.3,0.1"/>
		<path class="st0" d="M42.8,72.7l-1.1,3.1c-0.4,0.8-0.7,1.7-0.9,2.5v0.1l-10,28.9c-0.6,2.1-1.9,4-3.8,5.1l-0.3,0.1
			c-1.1,0.5-2.3,0.8-3.5,0.8c-2.4-0.1-4.7-0.8-6.7-2C7.7,105.6,2.2,96,1.6,85.6L4.2,44c2.7,6.5,6.6,12.4,11.4,17.6v0
			c0.4,0.4,0.8,0.8,1.2,1.2c0.4,0.4,0.8,0.8,1.2,1.2c0,0,0,0,0,0c0.6,0.6,1.3,1.2,1.9,1.7c1.8,1.6,3.7,2.9,5.8,4.1
			c6.5,3.8,12.4,4.4,16.9,2.5L42.8,72.7z"/>
		<path class="st2" d="M63,98.1l-3.6,1.7c1.8-1.4,2.9-3.5,2.8-5.7C62.4,95.5,62.6,96.8,63,98.1z"/>
		<path class="st2" d="M81,112.4l-0.5,0.2"/>
	</g>
	<path class="st3" d="M66.3,56.2c-0.4,0-0.8-0.1-1.1-0.3l-6.4-3.7c-0.7-0.4-1.1-1.1-1.1-1.9c0-0.8,0.4-1.5,1.1-1.9
		c0.7-0.4,1.5-0.4,2.2,0l6.4,3.7c0.9,0.5,1.3,1.5,1,2.5C68.2,55.5,67.4,56.2,66.3,56.2z"/>
	<ellipse transform="matrix(0.8631 -0.505 0.505 0.8631 -29.6562 69.0048)" class="st5" cx="112.5" cy="89.2" rx="4.4" ry="7.6"/>
	<ellipse transform="matrix(0.8631 -0.505 0.505 0.8631 -25.3376 52.7174)" class="st6" cx="84.6" cy="73.1" rx="4.4" ry="7.6"/>
	<path class="st7" d="M36.9,41.9l-7-4.1v-8.1c-0.1-1.1-0.6-2.1-1.5-2.6l-5.5-3.2c-0.8-0.5-1.5-0.1-1.5,0.9v8.1l-7-4.1
		c-0.8-0.5-1.5-0.1-1.5,0.9V36c0.1,1.1,0.6,2.1,1.5,2.6l7,4.1v8.1c0.1,1.1,0.6,2.1,1.5,2.6l5.5,3.2c0.8,0.5,1.5,0.1,1.5-0.9v-8.1
		l7,4.1c0.8,0.5,1.5,0.1,1.5-0.9v-6.3C38.4,43.5,37.8,42.5,36.9,41.9z"/>
	<ellipse transform="matrix(0.8631 -0.505 0.505 0.8631 -34.3316 62.7097)" class="st8" cx="98.5" cy="94.7" rx="4.4" ry="7.6"/>
	<ellipse transform="matrix(0.8631 -0.505 0.505 0.8631 -20.6652 59.0055)" class="st8" cx="98.5" cy="67.6" rx="4.4" ry="7.6"/>
	<path class="st2" d="M8.4,8.6L8,8.8"/>
</g>
</svg>
