<?xml version="1.0" encoding="utf-8"?>
<!-- Generator: Adobe Illustrator 22.0.1, SVG Export Plug-In . SVG Version: 6.00 Build 0)  -->
<svg version="1.1" id="Слой_4" xmlns="http://www.w3.org/2000/svg" xmlns:xlink="http://www.w3.org/1999/xlink" x="0px" y="0px"
	 viewBox="0 0 127.7 141.7" style="enable-background:new 0 0 127.7 141.7;" xml:space="preserve">
<style type="text/css">
	.st0{fill:#F2DAB8;}
	.st1{fill:#FFE7CA;}
	.st2{fill:#EDCC9D;}
	.st3{fill:#FCF6ED;}
</style>
<path class="st0" d="M119.6,58.6l-21-12.1c-2.5-1.5-4.7-4.6-5.5-7.8L86.7,12c-1.2-5-4.4-9-7.7-10.8c-2.1-1.2-4.2-1.5-5.7-0.6
	l-27,15.7l-8-4.6c-2.4-1.4-4.3-1.4-5.7-0.6L2.4,28.5c0.1-0.1,0.2-0.1,0.3-0.2c-3.5,1.6-3.9,8.4,0.6,14.8l16.9,24
	c2,2.9,2.9,6.4,2.1,8.7L15.8,95c-1.9,5.4,2.6,13.7,7.7,16.6c1.6,0.9,3.2,1.3,4.7,0.9l17-4.4c1-0.3,2.2,0,3.4,0.7
	c1.2,0.7,2.4,1.8,3.4,3.2l16.9,24c1.5,2.1,3.1,3.6,4.7,4.5c2.2,1.3,4.3,1.4,5.8,0.5c0,0,0,0,0,0l30.2-17.5c2-1.1,3-4,1.9-8.3
	l-6.3-26.1l20.1-11.7C130.3,74.8,127,62.8,119.6,58.6z"/>
<path class="st1" d="M2.4,28.5L32.6,11c1.4-0.8,3.3-0.7,5.7,0.6L8.1,29.2C5.7,27.8,3.8,27.7,2.4,28.5z"/>
<path class="st2" d="M109.7,123.6l-30.2,17.5c2-1.1,3-4,1.9-8.3l30.2-17.5C112.6,119.7,111.6,122.5,109.7,123.6z"/>
<polygon class="st3" points="8.1,29.2 38.3,11.6 59.3,23.7 29.1,41.3 "/>
<path class="st3" d="M63.4,24.1L33.2,41.7c-1.1,0.6-2.6,0.5-4.1-0.4l30.2-17.5C60.9,24.6,62.3,24.8,63.4,24.1z"/>
<polygon class="st2" points="75,106.3 105.2,88.7 111.6,115.4 81.4,132.9 "/>
<path class="st2" d="M76.4,100.3l30.2-17.5c-1.5,0.9-2.1,3.2-1.4,6L75,106.3C74.3,103.5,74.9,101.2,76.4,100.3z"/>
<path class="st3" d="M63,56.2l30.2-17.5c0.8,3.2,3,6.4,5.5,7.8L68.5,64C66,62.5,63.7,59.4,63,56.2z"/>
<path class="st1" d="M43.1,18.1L73.3,0.5c1.5-0.9,3.6-0.6,5.7,0.6L48.9,18.7C46.8,17.5,44.7,17.2,43.1,18.1z"/>
<polygon class="st0" points="56.5,29.5 86.7,12 93.1,38.7 63,56.2 "/>
<path class="st3" d="M48.9,18.7L79.1,1.1C82.3,3,85.5,7,86.7,12L56.5,29.5C55.3,24.6,52.1,20.6,48.9,18.7z"/>
<polygon class="st3" points="68.5,64 98.7,46.5 119.6,58.6 89.5,76.1 "/>
<path class="st0" d="M125.4,77.7L95.2,95.2c4.9-2.8,1.6-14.9-5.8-19.1l30.2-17.5C127,62.8,130.3,74.8,125.4,77.7z"/>
<path class="st1" d="M48.9,18.7c3.2,1.9,6.5,5.9,7.7,10.8L63,56.2c0.8,3.2,3,6.4,5.5,7.8l21,12.1c7.8,4.5,11,17.9,4.7,19.5l-17,4.4
	c-2,0.5-2.9,3-2.1,6.3l6.4,26.7c1.8,7.6-2.7,10.6-7.7,7.7c-1.6-0.9-3.2-2.4-4.7-4.5l-16.9-24c-1-1.4-2.2-2.6-3.4-3.2
	c-1.2-0.7-2.4-1-3.4-0.7l-17,4.4c-1.5,0.4-3.1,0-4.7-0.9c-5-2.9-9.5-11.2-7.7-16.6l6.5-19.2c0.8-2.3-0.1-5.8-2.1-8.7l-16.9-24
	c-6.3-8.9-3-18.6,4.8-14l21,12.1c2.5,1.5,4.8,0.9,5.5-1.4l6.5-19.2C42.4,17.1,45.6,16.8,48.9,18.7z"/>
</svg>
