<svg xmlns="http://www.w3.org/2000/svg" width="28" height="27" viewBox="0 0 28 27">
  <metadata><?xpacket begin="﻿" id="W5M0MpCehiHzreSzNTczkc9d"?>
<x:xmpmeta xmlns:x="adobe:ns:meta/" x:xmptk="Adobe XMP Core 5.6-c142 79.160924, 2017/07/13-01:06:39        ">
   <rdf:RDF xmlns:rdf="http://www.w3.org/1999/02/22-rdf-syntax-ns#">
      <rdf:Description rdf:about=""/>
   </rdf:RDF>
</x:xmpmeta>
                                                                                                    
                                                                                                    
                                                                                                    
                                                                                                    
                                                                                                    
                                                                                                    
                                                                                                    
                                                                                                    
                                                                                                    
                                                                                                    
                                                                                                    
                                                                                                    
                                                                                                    
                                                                                                    
                                                                                                    
                                                                                                    
                                                                                                    
                                                                                                    
                                                                                                    
                                                                                                    
                           
<?xpacket end="w"?></metadata>
<defs>
    <style>
      .cls-1 {
        fill: #fff;
        fill-rule: evenodd;
      }
    </style>
  </defs>
  <path id="Фигура_6" data-name="Фигура 6" class="cls-1" d="M89.444,899.764a6.516,6.516,0,0,0,.915-3.342,3.414,3.414,0,0,0-1.484-2.831h0l3.1-3.115-9.655-1.448L78,880l-4.318,9.028-9.655,1.448,3.1,3.115h0a3.448,3.448,0,0,0-.569,5.173c-1.472.867-2.556,4.556-2.556,6.543v0.846a0.834,0.834,0,0,0,.82.847H91.18a0.834,0.834,0,0,0,.82-0.847v-0.846C92,903.358,90.949,900.651,89.444,899.764ZM85,897a2,2,0,1,1,2,1.988A2,2,0,0,1,85,897Zm-7-8.377a3.87,3.87,0,1,1-3.813,3.87A3.893,3.893,0,0,1,78,888.623Zm-9,10.365A1.988,1.988,0,1,1,71,897,2,2,0,0,1,69,898.988Zm-3.359,6.319c0-1.9,1.5-5.5,3.281-5.5s3.281,3.6,3.281,5.5H65.641Zm17.026-.031H73.333v-2.862c0-2.334,2.375-4.3,4.667-4.3s4.667,3.965,4.667,6.3v0.862Zm1.13,0.031c0-1.9,1.5-5.5,3.281-5.5s3.281,3.6,3.281,5.5H83.8Z" transform="translate(-64 -880)"/>
</svg>
