<svg xmlns="http://www.w3.org/2000/svg" width="31" height="24" viewBox="0 0 31 24">
  <metadata><?xpacket begin="﻿" id="W5M0MpCehiHzreSzNTczkc9d"?>
<x:xmpmeta xmlns:x="adobe:ns:meta/" x:xmptk="Adobe XMP Core 5.6-c142 79.160924, 2017/07/13-01:06:39        ">
   <rdf:RDF xmlns:rdf="http://www.w3.org/1999/02/22-rdf-syntax-ns#">
      <rdf:Description rdf:about=""/>
   </rdf:RDF>
</x:xmpmeta>
                                                                                                    
                                                                                                    
                                                                                                    
                                                                                                    
                                                                                                    
                                                                                                    
                                                                                                    
                                                                                                    
                                                                                                    
                                                                                                    
                                                                                                    
                                                                                                    
                                                                                                    
                                                                                                    
                                                                                                    
                                                                                                    
                                                                                                    
                                                                                                    
                                                                                                    
                                                                                                    
                           
<?xpacket end="w"?></metadata>
<defs>
    <style>
      .cls-1 {
        fill: #fff;
        fill-rule: evenodd;
      }
    </style>
  </defs>
  <path id="Фигура_5" data-name="Фигура 5" class="cls-1" d="M527.294,900.286a10.983,10.983,0,0,0,4.437-3.179,6.714,6.714,0,0,0,0-8.761,10.983,10.983,0,0,0-4.437-3.179,16.6,16.6,0,0,0-12.231,0,10.981,10.981,0,0,0-4.437,3.178A6.823,6.823,0,0,0,509,892.727a6.627,6.627,0,0,0,1.229,3.818,10.047,10.047,0,0,0,3.373,3.017c-0.115.273-.234,0.522-0.355,0.75a4.314,4.314,0,0,1-.432.656c-0.168.21-.3,0.375-0.39,0.494s-0.242.287-.449,0.5-0.341.358-.4,0.426a0.146,0.146,0,0,0-.07.076,0.215,0.215,0,0,1-.078.086,0.192,0.192,0,0,0-.069.085l-0.06.094-0.044.084a0.366,0.366,0,0,0-.034.1,0.628,0.628,0,0,0-.009.11,0.359,0.359,0,0,0,.017.111,0.572,0.572,0,0,0,.2.358,0.546,0.546,0,0,0,.355.136h0.052a14.917,14.917,0,0,0,1.488-.273,14.657,14.657,0,0,0,4.809-2.181,17.711,17.711,0,0,0,3.045.272A15.775,15.775,0,0,0,527.294,900.286Zm-9.679-1.423-0.761.528q-0.485.324-1.073,0.665l0.606-1.432-1.678-.955a7.933,7.933,0,0,1-2.578-2.249,4.6,4.6,0,0,1-.916-2.693,4.8,4.8,0,0,1,1.358-3.256,9.277,9.277,0,0,1,3.658-2.4,14.242,14.242,0,0,1,9.895,0,9.281,9.281,0,0,1,3.659,2.4,4.581,4.581,0,0,1,0,6.511,9.27,9.27,0,0,1-3.659,2.4,13.638,13.638,0,0,1-4.947.887,15.2,15.2,0,0,1-2.647-.239Zm21.157,2.053a6.575,6.575,0,0,0-.069-7.747,10.212,10.212,0,0,0-3.529-3.034,8.66,8.66,0,0,1-.762,6.92,11.475,11.475,0,0,1-3.321,3.613,15.394,15.394,0,0,1-4.568,2.2,18.53,18.53,0,0,1-5.345.767q-0.519,0-1.522-.068a14.7,14.7,0,0,0,8.165,2.25,17.615,17.615,0,0,0,3.045-.273,14.659,14.659,0,0,0,4.809,2.182,14.917,14.917,0,0,0,1.488.273,0.531,0.531,0,0,0,.381-0.12,0.626,0.626,0,0,0,.224-0.374,0.117,0.117,0,0,1,.018-0.111q0.026-.009-0.009-0.111c-0.023-.068-0.034-0.1-0.034-0.1L537.7,907.1a0.781,0.781,0,0,0-.06-0.094,0.854,0.854,0,0,0-.069-0.085c-0.017-.017-0.043-0.046-0.078-0.085s-0.058-.065-0.069-0.077c-0.058-.068-0.19-0.21-0.4-0.426s-0.357-.383-0.45-0.5-0.222-.284-0.389-0.5a4.314,4.314,0,0,1-.432-0.656c-0.121-.227-0.24-0.477-0.355-0.75A10.1,10.1,0,0,0,538.772,900.916Z" transform="translate(-509 -884)"/>
</svg>
