<svg xmlns="http://www.w3.org/2000/svg" width="28" height="29" viewBox="0 0 28 29">
  <metadata><?xpacket begin="﻿" id="W5M0MpCehiHzreSzNTczkc9d"?>
<x:xmpmeta xmlns:x="adobe:ns:meta/" x:xmptk="Adobe XMP Core 5.6-c142 79.160924, 2017/07/13-01:06:39        ">
   <rdf:RDF xmlns:rdf="http://www.w3.org/1999/02/22-rdf-syntax-ns#">
      <rdf:Description rdf:about=""/>
   </rdf:RDF>
</x:xmpmeta>
                                                                                                    
                                                                                                    
                                                                                                    
                                                                                                    
                                                                                                    
                                                                                                    
                                                                                                    
                                                                                                    
                                                                                                    
                                                                                                    
                                                                                                    
                                                                                                    
                                                                                                    
                                                                                                    
                                                                                                    
                                                                                                    
                                                                                                    
                                                                                                    
                                                                                                    
                                                                                                    
                           
<?xpacket end="w"?></metadata>
<defs>
    <style>
      .cls-1 {
        fill: #fff;
        fill-rule: evenodd;
      }
    </style>
  </defs>
  <path id="Фигура_4" data-name="Фигура 4" class="cls-1" d="M986.224,897.8L989,896c-0.444-.452-1.556-1.638-2-2l-2.019,2.531a8.083,8.083,0,0,0-4.1-1.757L981,893h2v-2h-2v-9H961v26h13a6.713,6.713,0,0,0,6.01,3,8.032,8.032,0,0,0,7.99-8.139A7.8,7.8,0,0,0,986.224,897.8ZM963,906V884h16v7h-2v2h2l0.139,1.769a8.048,8.048,0,0,0-7.12,8.092,8.318,8.318,0,0,0,.543,2.973Zm18-2h-2v-6h2v6Z" transform="translate(-961 -882)"/>
</svg>
