<svg xmlns="http://www.w3.org/2000/svg" width="29" height="27" viewBox="0 0 29 27">
  <metadata><?xpacket begin="﻿" id="W5M0MpCehiHzreSzNTczkc9d"?>
<x:xmpmeta xmlns:x="adobe:ns:meta/" x:xmptk="Adobe XMP Core 5.6-c142 79.160924, 2017/07/13-01:06:39        ">
   <rdf:RDF xmlns:rdf="http://www.w3.org/1999/02/22-rdf-syntax-ns#">
      <rdf:Description rdf:about=""/>
   </rdf:RDF>
</x:xmpmeta>
                                                                                                    
                                                                                                    
                                                                                                    
                                                                                                    
                                                                                                    
                                                                                                    
                                                                                                    
                                                                                                    
                                                                                                    
                                                                                                    
                                                                                                    
                                                                                                    
                                                                                                    
                                                                                                    
                                                                                                    
                                                                                                    
                                                                                                    
                                                                                                    
                                                                                                    
                                                                                                    
                           
<?xpacket end="w"?></metadata>
<defs>
    <style>
      .cls-1 {
        fill: #fff;
        fill-rule: evenodd;
      }
    </style>
  </defs>
  <path id="Фигура_3" data-name="Фигура 3" class="cls-1" d="M64.906,1089.76A1.685,1.685,0,0,0,63,1091.23v4.85a1.926,1.926,0,0,0,1.906,1.82L69,1098v-8l-2.419-.24H64.906Zm13.587,10.28a2.481,2.481,0,1,0,.04,4.96,2.685,2.685,0,0,0,1.866-.74,2.245,2.245,0,0,0,.635-1.7A2.547,2.547,0,0,0,78.493,1100.04Zm11.6-10.28L86,1090v8l4.094-.1c0.437,0,1.906-.15,1.906-1.43v-4.85A2.033,2.033,0,0,0,90.094,1089.76ZM87,1086v3h2v-3c0-6-5.86-8-12-8s-11,2-11,8v3h2v-3c0-5.36,3.518-6,9-6S87,1080.64,87,1086Zm0.546,13.45a6.73,6.73,0,0,1-5.837,2.53l-0.079,1.12h0.715a7.658,7.658,0,0,0,6.154-2.99l1.032-1.39L88,1099Z" transform="translate(-63 -1078)"/>
</svg>
