<svg xmlns="http://www.w3.org/2000/svg" width="22" height="28" viewBox="0 0 22 28">
  <metadata><?xpacket begin="﻿" id="W5M0MpCehiHzreSzNTczkc9d"?>
<x:xmpmeta xmlns:x="adobe:ns:meta/" x:xmptk="Adobe XMP Core 5.6-c142 79.160924, 2017/07/13-01:06:39        ">
   <rdf:RDF xmlns:rdf="http://www.w3.org/1999/02/22-rdf-syntax-ns#">
      <rdf:Description rdf:about=""/>
   </rdf:RDF>
</x:xmpmeta>
                                                                                                    
                                                                                                    
                                                                                                    
                                                                                                    
                                                                                                    
                                                                                                    
                                                                                                    
                                                                                                    
                                                                                                    
                                                                                                    
                                                                                                    
                                                                                                    
                                                                                                    
                                                                                                    
                                                                                                    
                                                                                                    
                                                                                                    
                                                                                                    
                                                                                                    
                                                                                                    
                           
<?xpacket end="w"?></metadata>
<defs>
    <style>
      .cls-1 {
        fill: #fff;
        fill-rule: evenodd;
      }
    </style>
  </defs>
  <path id="Фигура_1" data-name="Фигура 1" class="cls-1" d="M981.8,1080.31h-3.054a3.252,3.252,0,0,0-1.532-.95,1.521,1.521,0,0,1-1.042-1.02,3.32,3.32,0,0,0-6.344,0,1.526,1.526,0,0,1-1.044,1.02,3.246,3.246,0,0,0-1.53.95H964.2a2.174,2.174,0,0,0-2.2,2.15v19.71a1.853,1.853,0,0,0,1.873,1.83H981.8a2.174,2.174,0,0,0,2.2-2.15v-19.39A2.174,2.174,0,0,0,981.8,1080.31Zm-8.929-2.15a1.08,1.08,0,1,1-.948.93A1.092,1.092,0,0,1,972.871,1078.16Zm9.273,24.02H963.856v-20.06H966.4v2.5h13.2v-2.5h2.544v20.06Zm-4.96-13.48-6.117,5.98-2.553-2.44-1.556,1.52,4.109,3.97,7.672-7.51Z" transform="translate(-962 -1076)"/>
</svg>
