<svg xmlns="http://www.w3.org/2000/svg" width="25" height="25" viewBox="0 0 25 25">
  <metadata><?xpacket begin="﻿" id="W5M0MpCehiHzreSzNTczkc9d"?>
<x:xmpmeta xmlns:x="adobe:ns:meta/" x:xmptk="Adobe XMP Core 5.6-c142 79.160924, 2017/07/13-01:06:39        ">
   <rdf:RDF xmlns:rdf="http://www.w3.org/1999/02/22-rdf-syntax-ns#">
      <rdf:Description rdf:about=""/>
   </rdf:RDF>
</x:xmpmeta>
                                                                                                    
                                                                                                    
                                                                                                    
                                                                                                    
                                                                                                    
                                                                                                    
                                                                                                    
                                                                                                    
                                                                                                    
                                                                                                    
                                                                                                    
                                                                                                    
                                                                                                    
                                                                                                    
                                                                                                    
                                                                                                    
                                                                                                    
                                                                                                    
                                                                                                    
                                                                                                    
                           
<?xpacket end="w"?></metadata>
<defs>
    <style>
      .cls-1 {
        fill: #fff;
        fill-rule: evenodd;
      }
    </style>
  </defs>
  <path id="icon" class="cls-1" d="M260.988,325.313l-0.5.54c-0.274.3-2.744,2.915-4.941,3.119-0.129.011-.264,0.017-0.4,0.017-2.947,0-7.662-2.807-12.012-7.153a34.3,34.3,0,0,1-5.314-6.7c-0.928-1.585-2-3.86-1.83-5.7,0.2-2.195,2.824-4.662,3.122-4.935l0.54-.5,6.7,6.695-2.251,2.249,7.926,7.915,2.251-2.247Zm-2.139.024-4.564-4.559-2.251,2.249-10.088-10.076L244.2,310.7l-4.565-4.56c-0.823.868-2.014,2.339-2.116,3.437a9.179,9.179,0,0,0,1.628,4.784,32.679,32.679,0,0,0,5.075,6.392c3.953,3.949,8.448,6.706,10.931,6.706,0.09,0,.177,0,0.259-0.01C256.5,327.35,257.989,326.147,258.849,325.337Z" transform="translate(-236 -304)"/>
</svg>
