<svg xmlns="http://www.w3.org/2000/svg" width="29" height="29" viewBox="0 0 29 29">
  <metadata><?xpacket begin="﻿" id="W5M0MpCehiHzreSzNTczkc9d"?>
<x:xmpmeta xmlns:x="adobe:ns:meta/" x:xmptk="Adobe XMP Core 5.6-c142 79.160924, 2017/07/13-01:06:39        ">
   <rdf:RDF xmlns:rdf="http://www.w3.org/1999/02/22-rdf-syntax-ns#">
      <rdf:Description rdf:about=""/>
   </rdf:RDF>
</x:xmpmeta>
                                                                                                    
                                                                                                    
                                                                                                    
                                                                                                    
                                                                                                    
                                                                                                    
                                                                                                    
                                                                                                    
                                                                                                    
                                                                                                    
                                                                                                    
                                                                                                    
                                                                                                    
                                                                                                    
                                                                                                    
                                                                                                    
                                                                                                    
                                                                                                    
                                                                                                    
                                                                                                    
                           
<?xpacket end="w"?></metadata>
<defs>
    <style>
      .cls-1 {
        fill: #fff;
        fill-rule: evenodd;
      }
    </style>
  </defs>
  <path id="icon" class="cls-1" d="M247.5,426.989a14.49,14.49,0,1,1,14.49-14.49A14.489,14.489,0,0,1,247.5,426.989Zm0-27.168A12.679,12.679,0,1,0,260.178,412.5,12.678,12.678,0,0,0,247.5,399.821Zm9.057,13.584v-1.812h1.811v1.812h-1.811Zm-2.538,6.513-1.281-1.28,1.281-1.281,1.28,1.281ZM253,405.5l1.253-1.256,1.253,1.256-1.253,1.256Zm-6.408,16.053h1.811v1.811h-1.811v-1.811Zm0.905-8.129h-8.15a0.906,0.906,0,1,1,0-1.811h7.245v-9.078a0.906,0.906,0,0,1,1.811,0v9.984A0.9,0.9,0,0,1,247.5,413.426Zm-8.273-7.88,1.281-1.28,1.28,1.28-1.28,1.281Zm2.388,13.14-1.254,1.256-1.253-1.256,1.253-1.256Z" transform="translate(-233 -398)"/>
</svg>
